<?xml version="1.0" standalone="no"?>
<!DOCTYPE svg PUBLIC "-//W3C//DTD SVG 20010904//EN"
 "http://www.w3.org/TR/2001/REC-SVG-20010904/DTD/svg10.dtd">
<svg version="1.0" xmlns="http://www.w3.org/2000/svg"
 width="297.000000pt" height="289.000000pt" viewBox="0 0 297.000000 289.000000"
 preserveAspectRatio="xMidYMid meet">

<g transform="translate(0.000000,289.000000) scale(0.100000,-0.100000)"
fill="#000000" stroke="none">
<path d="M2120 2185 l0 -315 60 0 60 0 0 135 0 135 65 0 65 0 0 50 0 50 -65 0
-65 0 0 130 0 130 -60 0 -60 0 0 -315z"/>
<path d="M914 2481 c-58 -14 -124 -53 -152 -89 -23 -30 -27 -45 -27 -101 0
-53 5 -72 24 -99 49 -69 137 -104 261 -104 92 0 143 13 200 51 116 78 120 222
8 296 -71 47 -219 68 -314 46z m224 -118 c68 -50 61 -111 -18 -151 -38 -20
-56 -23 -116 -19 -81 4 -127 26 -145 69 -20 50 11 96 81 119 46 15 168 4 198
-18z"/>
<path d="M1570 2410 l0 -49 153 -3 152 -3 3 -37 3 -37 -153 -3 -153 -3 -3
-144 -3 -144 238 5 c131 3 246 9 256 13 12 5 17 18 17 44 0 55 -7 59 -75 50
-33 -4 -117 -8 -187 -8 l-128 -1 0 45 0 45 155 0 156 0 -3 138 -3 137 -212 3
-213 2 0 -50z"/>
<path d="M617 2013 c-4 -3 -7 -26 -7 -50 l0 -43 105 0 105 0 0 -145 0 -145 60
0 60 0 0 145 0 145 80 0 80 0 0 -145 0 -145 60 0 60 0 0 145 0 145 106 0 105
0 -3 48 -3 47 -401 3 c-220 1 -403 -1 -407 -5z"/>
<path d="M1690 1800 l0 -140 285 0 285 0 0 50 0 50 -225 0 -225 0 0 90 0 90
-60 0 -60 0 0 -140z"/>
<path d="M1230 1105 l0 -435 60 0 60 0 0 435 0 435 -60 0 -60 0 0 -435z"/>
<path d="M2170 1105 l0 -435 60 0 60 0 0 435 0 435 -60 0 -60 0 0 -435z"/>
<path d="M1990 1410 l0 -110 -85 0 -85 0 0 -50 0 -50 85 0 85 0 0 -250 0 -250
60 0 60 0 0 410 0 410 -60 0 -60 0 0 -110z"/>
<path d="M824 1481 c-112 -27 -175 -133 -175 -298 0 -101 12 -147 54 -209 59
-87 168 -118 263 -75 104 47 160 195 134 355 -20 128 -78 204 -170 225 -51 12
-62 12 -106 2z m97 -111 c56 -30 85 -179 55 -282 -28 -96 -100 -134 -157 -82
-48 44 -70 200 -41 286 26 73 88 107 143 78z"/>
<path d="M1582 1198 l3 -273 65 -3 c61 -3 289 13 296 21 2 2 1 24 -2 48 l-6
45 -119 -4 -119 -4 0 221 0 221 -60 0 -60 0 2 -272z"/>
</g>
</svg>
